# Blender v2.65 (sub 0) OBJ File: 'landscape.blend'
# www.blender.org
mtllib dome2.mtl
o Dome2_Icosphere.002
v 0.217181 0.013295 0.069688
v 0.211447 0.013495 0.051516
v 0.226942 0.012819 0.040444
v 0.242253 0.012200 0.051774
v 0.236220 0.012495 0.069847
v 0.227230 0.022870 0.056631
v 0.241029 0.004175 0.067447
v 0.231921 0.004573 0.073955
v 0.220731 0.005043 0.073862
v 0.211731 0.005407 0.067203
v 0.208361 0.005524 0.056521
v 0.211907 0.005351 0.045898
v 0.221014 0.004953 0.039390
v 0.232205 0.004483 0.039483
v 0.241205 0.004119 0.046142
v 0.244575 0.004002 0.056824
v 0.226741 0.014323 0.072067
v 0.212180 0.014911 0.061292
v 0.217918 0.014631 0.044103
v 0.236025 0.013870 0.044254
v 0.241478 0.013679 0.061537
v 0.232648 0.019951 0.064392
v 0.221457 0.020422 0.064299
v 0.218087 0.020539 0.053618
v 0.227194 0.020141 0.047110
v 0.236194 0.019778 0.053769
vt 0.000000 0.000000
vt 1.000000 0.000000
vt 1.000000 1.000000
vn -0.245750 0.674197 0.696466
vn -0.719967 0.692463 -0.046278
vn -0.160789 0.667404 -0.727131
vn 0.659022 0.633650 -0.405188
vn 0.606516 0.637845 0.474650
vn 0.581261 0.103117 0.807157
vn -0.583926 0.152105 0.797430
vn -0.934850 0.164348 -0.314714
vn 0.013449 0.122928 -0.992324
vn 0.950461 0.085087 -0.298972
vn -0.261362 0.343714 0.901971
vn -0.000206 0.189991 0.981786
vn 0.274217 0.321194 0.906443
vn -0.928975 0.369790 0.016120
vn -0.927931 0.227462 0.295305
vn -0.767677 0.364161 0.527313
vn -0.293595 0.341006 -0.893038
vn -0.562390 0.209610 -0.799863
vn -0.729477 0.360044 -0.581577
vn 0.766710 0.297143 -0.569088
vn 0.591250 0.161108 -0.790233
vn 0.336014 0.314539 -0.887784
vn 0.786635 0.298813 0.540293
vn 0.938697 0.148982 0.310890
vn 0.956336 0.290529 0.031860
vn 0.036922 0.943551 0.329163
vn 0.028392 0.795537 0.605240
vn 0.289829 0.651677 0.700940
vn -0.275995 0.956190 0.097614
vn -0.544968 0.818694 0.180970
vn -0.558668 0.686835 0.464916
vn -0.152699 0.950169 -0.271777
vn -0.319054 0.807658 -0.495876
vn -0.596671 0.686442 -0.415669
vn 0.236415 0.933809 -0.268531
vn 0.393930 0.777685 -0.489923
vn 0.228326 0.651045 -0.723884
vn 0.353610 0.929719 0.102873
vn 0.608667 0.770192 0.190602
vn 0.776217 0.629560 -0.033784
usemtl None
s off
f 1/1/1 17/2/1 23/3/1
f 2/1/2 18/2/2 24/3/2
f 3/1/3 19/2/3 25/3/3
f 4/1/4 20/2/4 26/3/4
f 5/1/5 21/2/5 22/3/5
f 8/1/6 7/2/6 5/3/6
f 9/2/7 1/3/7 10/1/7
f 12/1/8 11/2/8 2/3/8
f 14/1/9 13/2/9 3/3/9
f 16/1/10 15/2/10 4/3/10
f 17/2/11 1/3/11 9/1/11
f 9/1/12 8/2/12 17/3/12
f 8/1/13 5/2/13 17/3/13
f 11/1/14 18/2/14 2/3/14
f 11/1/15 10/2/15 18/3/15
f 10/1/16 1/2/16 18/3/16
f 13/1/17 19/2/17 3/3/17
f 13/1/18 12/2/18 19/3/18
f 12/1/19 2/2/19 19/3/19
f 15/1/20 20/2/20 4/3/20
f 15/1/21 14/2/21 20/3/21
f 14/1/22 3/2/22 20/3/22
f 7/1/23 21/2/23 5/3/23
f 7/1/24 16/2/24 21/3/24
f 16/1/25 4/2/25 21/3/25
f 23/1/26 22/2/26 6/3/26
f 23/1/27 17/2/27 22/3/27
f 17/1/28 5/2/28 22/3/28
f 24/1/29 23/2/29 6/3/29
f 24/1/30 18/2/30 23/3/30
f 18/1/31 1/2/31 23/3/31
f 25/1/32 24/2/32 6/3/32
f 25/1/33 19/2/33 24/3/33
f 19/1/34 2/2/34 24/3/34
f 26/1/35 25/2/35 6/3/35
f 26/1/36 20/2/36 25/3/36
f 20/1/37 3/2/37 25/3/37
f 22/1/38 26/2/38 6/3/38
f 22/1/39 21/2/39 26/3/39
f 21/1/40 4/2/40 26/3/40
