# Blender v2.65 (sub 0) OBJ File: 'landscape.blend'
# www.blender.org
mtllib panelsupport1.mtl
o PanelSupport1_Cylinder.007
v 0.142610 0.012417 -0.305649
v 0.136015 0.019993 -0.308987
v 0.142699 0.012554 -0.305514
v 0.136104 0.020130 -0.308852
v 0.142759 0.012678 -0.305352
v 0.136164 0.020254 -0.308691
v 0.142788 0.012783 -0.305170
v 0.136193 0.020359 -0.308509
v 0.142784 0.012866 -0.304975
v 0.136189 0.020442 -0.308313
v 0.142748 0.012923 -0.304774
v 0.136154 0.020499 -0.308112
v 0.142682 0.012953 -0.304574
v 0.136087 0.020529 -0.307913
v 0.142587 0.012954 -0.304385
v 0.135992 0.020530 -0.307723
v 0.142467 0.012926 -0.304212
v 0.135872 0.020502 -0.307550
v 0.142327 0.012870 -0.304063
v 0.135732 0.020446 -0.307401
v 0.142172 0.012788 -0.303942
v 0.135577 0.020364 -0.307281
v 0.142009 0.012684 -0.303856
v 0.135414 0.020260 -0.307195
v 0.141843 0.012561 -0.303807
v 0.135248 0.020137 -0.307145
v 0.141681 0.012424 -0.303797
v 0.135086 0.020000 -0.307135
v 0.141529 0.012279 -0.303826
v 0.134934 0.019855 -0.307165
v 0.141393 0.012131 -0.303894
v 0.134798 0.019707 -0.307232
v 0.141278 0.011985 -0.303997
v 0.134683 0.019561 -0.307336
v 0.141188 0.011848 -0.304132
v 0.134594 0.019424 -0.307471
v 0.141128 0.011724 -0.304294
v 0.134533 0.019300 -0.307632
v 0.141099 0.011619 -0.304476
v 0.134504 0.019195 -0.307814
v 0.141103 0.011536 -0.304671
v 0.134508 0.019112 -0.308010
v 0.141139 0.011479 -0.304872
v 0.134544 0.019055 -0.308211
v 0.141206 0.011449 -0.305072
v 0.134611 0.019025 -0.308410
v 0.141301 0.011448 -0.305261
v 0.134706 0.019024 -0.308600
v 0.141421 0.011477 -0.305434
v 0.134826 0.019053 -0.308772
v 0.141561 0.011533 -0.305583
v 0.134966 0.019109 -0.308922
v 0.141715 0.011614 -0.305704
v 0.135120 0.019190 -0.309042
v 0.141879 0.011719 -0.305790
v 0.135284 0.019295 -0.309128
v 0.142045 0.011841 -0.305839
v 0.135450 0.019417 -0.309177
v 0.142207 0.011978 -0.305849
v 0.135612 0.019554 -0.309188
v 0.142359 0.012123 -0.305820
v 0.135764 0.019699 -0.309158
v 0.142495 0.012271 -0.305752
v 0.135900 0.019847 -0.309091
vt 0.000000 0.000000
vt 1.000000 0.000000
vt 1.000000 1.000000
vt 0.000000 1.000000
vt 0.500000 1.000000
vt 0.597545 0.990393
vt 0.691342 0.961940
vt 0.777785 0.915735
vt 0.402456 0.990393
vt 0.853553 0.853553
vt 0.308659 0.961940
vt 0.915735 0.777785
vt 0.222215 0.915735
vt 0.961940 0.691342
vt 0.146447 0.853554
vt 0.990393 0.597545
vt 0.084266 0.777786
vt 1.000000 0.500000
vt 0.038060 0.691342
vt 0.990393 0.402455
vt 0.009607 0.597546
vt 0.961940 0.308658
vt 0.000000 0.500000
vt 0.915735 0.222215
vt 0.009607 0.402455
vt 0.853553 0.146447
vt 0.038060 0.308659
vt 0.777785 0.084265
vt 0.084265 0.222215
vt 0.691342 0.038060
vt 0.146446 0.146447
vt 0.597545 0.009607
vt 0.222215 0.084265
vt 0.500000 0.000000
vt 0.308658 0.038060
vt 0.402455 0.009607
vn 0.659498 0.263934 -0.703848
vn 0.728872 0.385003 -0.566143
vn 0.770236 0.491286 -0.406662
vn 0.781992 0.578673 -0.231573
vn 0.763696 0.643820 -0.047590
vn 0.716063 0.684220 0.138189
vn 0.640893 0.698337 0.318719
vn 0.541105 0.685612 0.486971
vn 0.420511 0.646538 0.636521
vn 0.283819 0.582647 0.761557
vn 0.136135 0.496323 0.857398
vn -0.016767 0.390927 0.920269
vn -0.168993 0.270531 0.947763
vn -0.314715 0.139751 0.938842
vn -0.448409 0.003532 0.893821
vn -0.564826 -0.132780 0.814458
vn -0.659478 -0.263902 0.703879
vn -0.728872 -0.385003 0.566143
vn -0.770236 -0.491287 0.406661
vn -0.781992 -0.578673 0.231574
vn -0.763695 -0.643820 0.047588
vn -0.716066 -0.684219 -0.138178
vn -0.640890 -0.698337 -0.318723
vn -0.541087 -0.685609 -0.486996
vn -0.420530 -0.646545 -0.636502
vn -0.283789 -0.582630 -0.761581
vn -0.136132 -0.496321 -0.857399
vn 0.016767 -0.390927 -0.920269
vn 0.168992 -0.270531 -0.947763
vn 0.314715 -0.139750 -0.938842
vn -0.623005 0.715771 -0.315495
vn -0.622954 0.715788 -0.315558
vn -0.623067 0.715761 -0.315394
vn -0.623083 0.715756 -0.315374
vn -0.623097 0.715752 -0.315355
vn -0.623085 0.715756 -0.315369
vn -0.623038 0.715767 -0.315437
vn -0.623063 0.715759 -0.315407
vn -0.623059 0.715760 -0.315412
vn -0.623088 0.715753 -0.315369
vn -0.623071 0.715759 -0.315392
vn -0.623058 0.715762 -0.315410
vn -0.623082 0.715754 -0.315380
vn -0.623065 0.715758 -0.315405
vn -0.623033 0.715769 -0.315444
vn -0.623054 0.715764 -0.315414
vn -0.623061 0.715761 -0.315405
vn -0.623088 0.715753 -0.315370
vn -0.623055 0.715761 -0.315419
vn -0.623060 0.715760 -0.315412
vn -0.623063 0.715759 -0.315408
vn -0.623039 0.715766 -0.315437
vn -0.623092 0.715754 -0.315361
vn -0.623074 0.715758 -0.315388
vn -0.622978 0.715789 -0.315506
vn -0.623001 0.715783 -0.315474
vn -0.623131 0.715741 -0.315312
vn 0.564794 0.132742 -0.814486
vn 0.448409 -0.003532 -0.893821
vn 0.623390 -0.715657 0.314992
vn 0.622988 -0.715788 0.315490
vn 0.622979 -0.715790 0.315503
vn 0.623084 -0.715756 0.315373
vn 0.623093 -0.715754 0.315360
vn 0.623089 -0.715755 0.315365
vn 0.623041 -0.715766 0.315433
vn 0.623063 -0.715759 0.315407
vn 0.623057 -0.715761 0.315416
vn 0.623063 -0.715759 0.315406
vn 0.623069 -0.715757 0.315398
vn 0.623060 -0.715759 0.315411
vn 0.623058 -0.715760 0.315414
vn 0.623063 -0.715759 0.315408
vn 0.623082 -0.715755 0.315380
vn 0.623060 -0.715762 0.315408
vn 0.623071 -0.715759 0.315392
vn 0.623088 -0.715753 0.315370
vn 0.623055 -0.715761 0.315419
vn 0.623060 -0.715760 0.315412
vn 0.623039 -0.715766 0.315437
vn 0.623088 -0.715755 0.315366
vn 0.623098 -0.715752 0.315354
vn 0.623078 -0.715757 0.315383
vn 0.623071 -0.715759 0.315391
vn 0.622967 -0.715783 0.315542
vn 0.622985 -0.715777 0.315519
usemtl None
s off
f 1/1/1 2/2/1 4/3/1 3/4/1
f 3/1/2 4/2/2 6/3/2 5/4/2
f 5/1/3 6/2/3 8/3/3 7/4/3
f 7/1/4 8/2/4 10/3/4 9/4/4
f 9/1/5 10/2/5 12/3/5 11/4/5
f 11/1/6 12/2/6 14/3/6 13/4/6
f 13/1/7 14/2/7 16/3/7 15/4/7
f 15/1/8 16/2/8 18/3/8 17/4/8
f 17/1/9 18/2/9 20/3/9 19/4/9
f 19/1/10 20/2/10 22/3/10 21/4/10
f 21/1/11 22/2/11 24/3/11 23/4/11
f 23/1/12 24/2/12 26/3/12 25/4/12
f 25/1/13 26/2/13 28/3/13 27/4/13
f 27/1/14 28/2/14 30/3/14 29/4/14
f 29/1/15 30/2/15 32/3/15 31/4/15
f 31/1/16 32/2/16 34/3/16 33/4/16
f 33/1/17 34/2/17 36/3/17 35/4/17
f 35/1/18 36/2/18 38/3/18 37/4/18
f 37/1/19 38/2/19 40/3/19 39/4/19
f 39/1/20 40/2/20 42/3/20 41/4/20
f 41/1/21 42/2/21 44/3/21 43/4/21
f 43/1/22 44/2/22 46/3/22 45/4/22
f 45/1/23 46/2/23 48/3/23 47/4/23
f 47/1/24 48/2/24 50/3/24 49/4/24
f 49/1/25 50/2/25 52/3/25 51/4/25
f 51/1/26 52/2/26 54/3/26 53/4/26
f 53/1/27 54/2/27 56/3/27 55/4/27
f 55/1/28 56/2/28 58/3/28 57/4/28
f 57/1/29 58/2/29 60/3/29 59/4/29
f 59/1/30 60/2/30 62/3/30 61/4/30
f 4/5/31 2/6/31 64/7/31
f 4/5/32 64/7/32 62/8/32
f 4/5/33 62/8/33 6/9/33
f 62/8/34 60/10/34 6/9/34
f 60/10/35 8/11/35 6/9/35
f 60/10/36 58/12/36 8/11/36
f 58/12/37 10/13/37 8/11/37
f 58/12/38 56/14/38 10/13/38
f 56/14/39 12/15/39 10/13/39
f 56/14/39 54/16/39 12/15/39
f 54/16/40 14/17/40 12/15/40
f 54/16/41 52/18/41 14/17/41
f 52/18/42 16/19/42 14/17/42
f 52/18/43 50/20/43 16/19/43
f 50/20/44 18/21/44 16/19/44
f 50/20/45 48/22/45 18/21/45
f 48/22/46 20/23/46 18/21/46
f 48/22/47 46/24/47 20/23/47
f 46/24/41 22/25/41 20/23/41
f 46/24/48 44/26/48 22/25/48
f 44/26/49 24/27/49 22/25/49
f 44/26/50 42/28/50 24/27/50
f 42/28/51 26/29/51 24/27/51
f 42/28/52 40/30/52 26/29/52
f 40/30/53 28/31/53 26/29/53
f 40/30/35 38/32/35 28/31/35
f 38/32/54 30/33/54 28/31/54
f 38/32/55 36/34/55 30/33/55
f 36/34/56 32/35/56 30/33/56
f 36/34/57 34/36/57 32/35/57
f 2/3/58 1/4/58 63/1/58 64/2/58
f 61/1/59 62/2/59 64/3/59 63/4/59
f 1/5/60 3/6/60 63/9/60
f 3/6/61 61/11/61 63/9/61
f 3/6/62 5/7/62 61/11/62
f 5/7/63 59/13/63 61/11/63
f 5/7/64 7/8/64 59/13/64
f 7/8/65 57/15/65 59/13/65
f 7/8/66 9/10/66 57/15/66
f 9/10/67 55/17/67 57/15/67
f 9/10/68 11/12/68 55/17/68
f 11/12/68 53/19/68 55/17/68
f 11/12/69 13/14/69 53/19/69
f 13/14/70 51/21/70 53/19/70
f 13/14/71 15/16/71 51/21/71
f 15/16/72 49/23/72 51/21/72
f 15/16/73 17/18/73 49/23/73
f 17/18/73 47/25/73 49/23/73
f 17/18/74 19/20/74 47/25/74
f 19/20/75 45/27/75 47/25/75
f 19/20/76 21/22/76 45/27/76
f 21/22/77 43/29/77 45/27/77
f 21/22/78 23/24/78 43/29/78
f 23/24/79 41/31/79 43/29/79
f 23/24/73 25/26/73 41/31/73
f 25/26/80 39/33/80 41/31/80
f 25/26/81 27/28/81 39/33/81
f 27/28/82 37/35/82 39/33/82
f 27/28/83 29/30/83 37/35/83
f 29/30/84 35/36/84 37/35/84
f 29/30/85 31/32/85 35/36/85
f 31/32/86 33/34/86 35/36/86
