# Blender v2.65 (sub 0) OBJ File: ''
# www.blender.org
mtllib plane.mtl
o Plane.004_Plane.013
v 0.500000 0.901511 0.500000
v -0.500000 0.901511 0.500000
v 0.500000 0.901511 -0.500000
v -0.500000 0.901511 -0.500000
vt 0.000000 1.000000
vt 0.000000 0.000000
vt 1.000000 0.000000
vt 1.000000 1.000000
vn 0.000000 1.000000 -0.000000
usemtl None
s off
f 2/1/1 1/2/1 3/3/1 4/4/1
o Plane.002_Plane.012
v -0.500000 -0.098489 0.500000
v -0.500000 0.901511 0.500000
v -0.500000 -0.098489 -0.500000
v -0.500000 0.901511 -0.500000
vt 0.000000 1.000000
vt 0.000000 0.000000
vt 1.000000 0.000000
vt 1.000000 1.000000
vn 1.000000 -0.000001 0.000000
usemtl None
s off
f 6/5/2 5/6/2 7/7/2 8/8/2
o Plane.001_Plane.011
v 0.500000 -0.098489 0.500000
v 0.500000 0.901511 0.500000
v 0.500000 -0.098489 -0.500000
v 0.500000 0.901511 -0.500000
vt 0.000000 1.000000
vt 0.000000 0.000000
vt 1.000000 0.000000
vt 1.000000 1.000000
usemtl None
s off
f 10/9/2 9/10/2 11/11/2 12/12/2
o Plane.000_Plane.010
v 0.500000 -0.098489 0.500000
v 0.500000 0.901511 0.499999
v -0.500000 -0.098489 0.500001
v -0.500000 0.901511 0.500000
vt 0.000000 1.000000
vt 0.000000 0.000000
vt 1.000000 0.000000
vt 1.000000 1.000000
vn -0.000001 -0.000001 -1.000000
usemtl None
s off
f 14/13/3 13/14/3 15/15/3 16/16/3
o Plane.003_Plane.008
v 0.500000 -0.098489 -0.500000
v 0.500000 0.901511 -0.500001
v -0.500000 -0.098489 -0.499999
v -0.500000 0.901511 -0.500000
vt 0.000000 1.000000
vt 0.000000 0.000000
vt 1.000000 0.000000
vt 1.000000 1.000000
usemtl None
s off
f 18/17/3 17/18/3 19/19/3 20/20/3
