# Blender v2.65 (sub 0) OBJ File: 'landscape.blend'
# www.blender.org
mtllib strut3.mtl
o Strut3_Cube.013
v 0.197106 0.008563 0.078223
v 0.196012 0.008563 0.076601
v 0.197633 0.008563 0.075508
v 0.198727 0.008563 0.077129
v 0.197106 0.020519 0.078223
v 0.196012 0.020519 0.076601
v 0.197633 0.020519 0.075508
v 0.198727 0.020519 0.077129
vt 1.000000 1.000000
vt 0.000000 1.000000
vt 0.000000 0.000000
vt 1.000000 0.000000
vn -0.829039 0.000000 0.559191
vn -0.559192 0.000000 -0.829038
vn 0.829039 0.000000 -0.559191
vn 0.559192 0.000000 0.829038
vn -0.000000 -1.000000 0.000000
vn -0.000000 1.000000 0.000000
usemtl None
s off
f 2/1/1 1/2/1 5/3/1 6/4/1
f 6/3/2 7/4/2 3/1/2 2/2/2
f 7/3/3 8/4/3 4/1/3 3/2/3
f 1/1/4 4/2/4 8/3/4 5/4/4
f 1/3/5 2/4/5 3/1/5 4/2/5
f 8/3/6 7/4/6 6/1/6 5/2/6
