# Blender v2.65 (sub 0) OBJ File: 'landscape.blend'
# www.blender.org
mtllib strut2.mtl
o Strut2_Cube.002
v 0.121565 0.007639 0.110272
v 0.120471 0.007639 0.108651
v 0.122093 0.007639 0.107557
v 0.123186 0.007639 0.109178
v 0.121565 0.019595 0.110272
v 0.120471 0.019595 0.108651
v 0.122093 0.019595 0.107557
v 0.123186 0.019595 0.109178
vt 1.000000 1.000000
vt 0.000000 1.000000
vt 0.000000 0.000000
vt 1.000000 0.000000
vn -0.829037 0.000000 0.559194
vn -0.559194 0.000000 -0.829037
vn 0.829037 0.000000 -0.559194
vn 0.559194 0.000000 0.829037
vn -0.000000 -1.000000 0.000000
vn -0.000000 1.000000 0.000000
usemtl None
s off
f 2/1/1 1/2/1 5/3/1 6/4/1
f 6/3/2 7/4/2 3/1/2 2/2/2
f 7/3/3 8/4/3 4/1/3 3/2/3
f 1/1/4 4/2/4 8/3/4 5/4/4
f 1/3/5 2/4/5 3/1/5 4/2/5
f 8/3/6 7/4/6 6/1/6 5/2/6
