# Blender v2.65 (sub 0) OBJ File: 'landscape.blend'
# www.blender.org
mtllib landingpad2.mtl
o LandingPad2_Cube.021
v 0.021100 0.006780 0.219760
v 0.033424 0.006780 0.208267
v 0.044917 0.006780 0.220592
v 0.032593 0.006780 0.232084
v 0.024389 0.004847 0.210933
v 0.042252 0.004847 0.211556
v 0.041628 0.004847 0.229419
v 0.023765 0.004847 0.228795
v 0.033008 0.006780 0.220176
v 0.027470 0.004847 0.208059
v 0.021100 0.006044 0.219760
v 0.045125 0.004847 0.214637
v 0.038547 0.004847 0.232292
v 0.020892 0.004847 0.225714
v 0.021308 0.004847 0.213806
v 0.033424 0.006044 0.208267
v 0.039378 0.004847 0.208475
v 0.044917 0.006044 0.220592
v 0.044709 0.004847 0.226546
v 0.032593 0.006044 0.232084
v 0.026638 0.004847 0.231876
v 0.024389 0.004110 0.210933
v 0.042252 0.004110 0.211556
v 0.041628 0.004110 0.229419
v 0.023765 0.004110 0.228795
v 0.030135 0.006780 0.217095
v 0.035882 0.006780 0.223257
v 0.029927 0.006780 0.223049
v 0.036089 0.006780 0.217303
v 0.033216 0.006780 0.214222
v 0.021308 0.004110 0.213806
v 0.027470 0.004110 0.208059
v 0.039378 0.004110 0.208475
v 0.045125 0.004110 0.214637
v 0.044709 0.004110 0.226546
v 0.038547 0.004110 0.232292
v 0.026638 0.004110 0.231876
v 0.020892 0.004110 0.225714
v 0.027054 0.006780 0.219968
v 0.032800 0.006780 0.226130
v 0.038963 0.006780 0.220384
v 0.030447 0.006780 0.208163
v 0.045021 0.006780 0.217615
v 0.035570 0.006780 0.232188
v 0.020996 0.006780 0.222737
v 0.021204 0.006780 0.216783
v 0.036401 0.006780 0.208371
v 0.044813 0.006780 0.223569
v 0.029615 0.006780 0.231980
v 0.027262 0.006780 0.214014
v 0.038755 0.006780 0.226338
v 0.026846 0.006780 0.225922
v 0.025929 0.004847 0.209496
v 0.043688 0.004847 0.213097
v 0.040087 0.004847 0.230856
v 0.022329 0.004847 0.227255
v 0.022848 0.004847 0.212369
v 0.040815 0.004847 0.210016
v 0.043168 0.004847 0.227982
v 0.025202 0.004847 0.230336
v 0.039171 0.006780 0.214430
v 0.030343 0.006780 0.211141
v 0.034653 0.006780 0.215762
v 0.031676 0.006780 0.215658
v 0.036297 0.006780 0.211348
v 0.024181 0.006780 0.216887
v 0.028491 0.006780 0.221508
v 0.023973 0.006780 0.222841
v 0.028595 0.006780 0.218531
v 0.031364 0.006780 0.224589
v 0.035674 0.006780 0.229211
v 0.029719 0.006780 0.229003
v 0.034341 0.006780 0.224693
v 0.037526 0.006780 0.218843
v 0.041836 0.006780 0.223465
v 0.037422 0.006780 0.221820
v 0.042044 0.006780 0.217511
v 0.033372 0.006780 0.209756
v 0.025722 0.006780 0.215450
v 0.040607 0.006780 0.215970
v 0.028803 0.006780 0.212577
v 0.037734 0.006780 0.212889
v 0.022589 0.006780 0.219812
v 0.025410 0.006780 0.224382
v 0.028283 0.006780 0.227463
v 0.032645 0.006780 0.230596
v 0.037214 0.006780 0.227774
v 0.040295 0.006780 0.224901
v 0.043428 0.006780 0.220540
vt 0.208333 0.791667
vt 0.250000 0.916667
vt 0.166667 0.833333
vt 0.083333 0.750000
vt 0.166667 0.416667
vt 0.166667 0.500000
vt 0.000000 0.500000
vt 0.000000 0.416667
vt 0.666667 0.500000
vt 0.500000 0.500000
vt 0.500000 0.333333
vt 0.666667 0.416667
vt 0.583333 0.333333
vt 0.583333 0.833333
vt 0.583333 1.000000
vt 0.500000 1.000000
vt 0.500000 0.833333
vt 0.166667 0.583333
vt 0.166667 0.666667
vt 0.000000 0.666667
vt 0.000000 0.583333
vt 0.333333 0.583333
vt 0.416667 0.666667
vt 0.333333 0.666667
vt 0.416667 0.833333
vt 0.416667 1.000000
vt 0.333333 1.000000
vt 0.333333 0.833333
vt 0.492699 0.744627
vt 0.427885 0.744563
vt 0.363070 0.702326
vt 0.492699 0.728561
vt 0.363070 0.686260
vt 0.631574 0.698726
vt 0.566619 0.740904
vt 0.501664 0.740904
vt 0.501664 0.724836
vt 0.631574 0.682658
vt 0.436709 0.740904
vt 0.371754 0.698726
vt 0.371754 0.682658
vt 0.511305 0.708667
vt 0.511305 0.724735
vt 0.575692 0.724735
vt 0.640080 0.682557
vt 0.640080 0.666489
vt 0.446917 0.724735
vt 0.382530 0.682557
vt 0.382530 0.666489
vt 0.558150 0.740904
vt 0.493176 0.740904
vt 0.493176 0.724836
vt 0.623123 0.698726
vt 0.623123 0.682658
vt 0.428203 0.740904
vt 0.363230 0.698726
vt 0.363230 0.682658
vt 0.557513 0.744691
vt 0.622328 0.702580
vt 0.622328 0.686514
vt 0.208333 0.208333
vt 0.166667 0.333333
vt 0.000000 0.333333
vt 0.083333 0.250000
vt 0.416667 0.166667
vt 0.416667 0.333333
vt 0.333333 0.333333
vt 0.333333 0.166667
vt 0.333333 0.416667
vt 0.583333 0.166667
vt 0.500000 0.166667
vt 0.791667 0.208333
vt 0.833333 0.333333
vt 0.666667 0.333333
vt 0.666667 0.166667
vt 0.833333 0.416667
vt 0.833333 0.500000
vt 0.666667 0.583333
vt 0.666667 0.666667
vt 0.583333 0.666667
vt 0.833333 0.583333
vt 0.833333 0.666667
vt 0.791667 0.791667
vt 0.750000 0.916667
vt 0.666667 1.000000
vt 0.666667 0.833333
vt 0.333333 0.500000
vt 0.500000 0.666667
vt 0.166667 0.166667
vt 0.250000 0.083333
vt 0.333333 0.000000
vt 0.416667 0.000000
vt 0.500000 0.000000
vt 0.583333 0.000000
vt 0.666667 0.000000
vt 0.750000 0.083333
vt 0.833333 0.166667
vt 0.916667 0.250000
vt 1.000000 0.333333
vt 1.000000 0.416667
vt 1.000000 0.500000
vt 1.000000 0.583333
vt 1.000000 0.666667
vt 0.916667 0.750000
vt 0.833333 0.833333
vt 0.000000 0.000000
vn 0.000000 1.000000 -0.000000
vn -0.284512 0.908827 -0.305102
vn 0.305101 0.908827 -0.284512
vn 0.305102 0.908827 -0.284511
vn -0.999391 -0.000002 -0.034899
vn -0.999391 0.000000 -0.034900
vn 0.034895 0.000008 -0.999391
vn 0.034898 0.000000 -0.999391
vn 0.034900 0.000000 -0.999391
vn -0.999391 -0.000000 -0.034901
vn -0.999391 0.000000 -0.034899
vn -0.999391 0.000001 -0.034899
vn -0.034895 0.000000 0.999391
vn -0.034897 0.000006 0.999391
vn -0.034898 0.000000 0.999391
vn -0.034900 0.000000 0.999391
vn -0.999391 -0.000001 -0.034901
vn 0.010773 0.951152 -0.308536
vn 0.010775 0.951152 -0.308536
vn -0.308536 0.951152 -0.010774
vn 0.308536 0.951152 0.010775
vn -0.010775 0.951152 0.308536
vn -0.305102 0.908827 0.284511
vn -0.305101 0.908827 0.284512
vn 0.308536 0.951152 0.010774
vn 0.284512 0.908827 0.305102
vn -0.010773 0.951152 0.308536
vn -0.682000 0.000000 -0.731352
vn -0.681996 -0.000018 -0.731356
vn -0.681998 0.000000 -0.731354
vn 0.731356 0.000000 -0.681996
vn 0.731353 0.000014 -0.682000
vn 0.731354 0.000000 -0.681998
vn 0.731353 0.000000 -0.682000
vn 0.731356 -0.000014 -0.681996
vn 0.681996 -0.000000 0.731356
vn 0.682000 -0.000018 0.731352
vn 0.681998 0.000000 0.731354
vn -0.731353 0.000000 0.682000
vn -0.731356 0.000014 0.681996
vn -0.731354 0.000000 0.681998
vn -0.731356 0.000000 0.681996
vn -0.731353 -0.000014 0.682000
usemtl None
s off
f 78/1/1 47/2/1 2/3/1
f 78/1/1 2/3/1 42/4/1
f 79/5/2 50/6/2 5/7/2
f 79/5/2 5/7/2 57/8/2
f 27/9/1 9/10/1 28/11/1
f 73/12/1 27/9/1 28/11/1
f 73/12/1 28/11/1 70/13/1
f 80/14/3 54/15/3 6/16/3
f 80/14/3 6/16/3 61/17/3
f 81/18/2 62/19/2 10/20/2
f 81/18/2 10/20/2 53/21/2
f 64/22/1 63/23/1 30/24/1
f 82/25/4 58/26/4 17/27/4
f 82/25/4 17/27/4 65/28/4
f 1/29/5 46/30/5 15/31/5
f 1/29/6 15/31/6 11/32/6
f 15/31/6 31/33/6 11/32/6
f 10/34/7 42/35/7 2/36/7
f 10/34/8 2/36/8 16/37/8
f 10/34/8 16/37/8 32/38/8
f 2/36/9 47/39/9 16/37/9
f 47/39/9 17/40/9 16/37/9
f 17/40/9 33/41/9 16/37/9
f 18/42/10 3/43/10 43/44/10
f 12/45/10 18/42/10 43/44/10
f 12/45/6 34/46/6 18/42/6
f 3/43/11 18/42/11 48/47/11
f 18/42/12 19/48/12 48/47/12
f 18/42/6 35/49/6 19/48/6
f 44/50/13 4/51/13 20/52/13
f 13/53/14 44/50/14 20/52/14
f 13/53/15 20/52/15 36/54/15
f 4/51/16 49/55/16 21/56/16
f 4/51/16 21/56/16 20/52/16
f 21/56/16 37/57/16 20/52/16
f 45/58/17 1/29/17 14/59/17
f 14/59/6 1/29/6 11/32/6
f 14/59/6 11/32/6 38/60/6
f 83/61/18 66/62/18 15/63/18
f 83/61/18 15/63/18 46/64/18
f 84/65/1 67/66/1 39/67/1
f 84/65/1 39/67/1 68/68/1
f 67/66/1 69/69/1 39/67/1
f 85/70/1 70/13/1 28/11/1
f 85/70/1 28/11/1 52/71/1
f 86/72/1 71/73/1 40/74/1
f 86/72/1 40/74/1 72/75/1
f 87/76/1 51/77/1 27/9/1
f 87/76/1 27/9/1 73/12/1
f 76/78/1 41/79/1 74/80/1
f 88/81/1 75/82/1 41/79/1
f 88/81/1 41/79/1 76/78/1
f 89/83/19 43/84/19 12/85/19
f 89/83/19 12/85/19 77/86/19
f 62/19/20 78/1/20 42/4/20
f 62/19/20 42/4/20 10/20/20
f 30/24/1 65/28/1 78/1/1
f 30/24/1 78/1/1 62/19/1
f 65/28/21 17/27/21 47/2/21
f 65/28/21 47/2/21 78/1/21
f 66/62/2 79/5/2 57/8/2
f 66/62/2 57/8/2 15/63/2
f 39/67/1 69/69/1 79/5/1
f 39/67/1 79/5/1 66/62/1
f 69/69/1 26/87/1 50/6/1
f 69/69/1 50/6/1 79/5/1
f 40/74/1 73/12/1 70/13/1
f 74/80/1 80/14/1 61/17/1
f 74/80/1 61/17/1 29/88/1
f 41/79/1 77/86/1 80/14/1
f 41/79/1 80/14/1 74/80/1
f 77/86/4 12/85/4 54/15/4
f 77/86/4 54/15/4 80/14/4
f 50/6/2 81/18/2 53/21/2
f 50/6/2 53/21/2 5/7/2
f 26/87/1 64/22/1 81/18/1
f 26/87/1 81/18/1 50/6/1
f 64/22/1 30/24/1 62/19/1
f 64/22/1 62/19/1 81/18/1
f 29/88/1 63/23/1 64/22/1
f 9/10/1 29/88/1 64/22/1
f 9/10/1 64/22/1 26/87/1
f 63/23/1 82/25/1 65/28/1
f 63/23/1 65/28/1 30/24/1
f 29/88/1 61/17/1 82/25/1
f 29/88/1 82/25/1 63/23/1
f 61/17/3 6/16/3 58/26/3
f 61/17/3 58/26/3 82/25/3
f 46/64/1 1/89/1 45/90/1
f 46/64/1 45/90/1 83/61/1
f 14/91/22 68/68/22 83/61/22
f 14/91/22 83/61/22 45/90/22
f 68/68/1 39/67/1 66/62/1
f 68/68/1 66/62/1 83/61/1
f 56/92/23 84/65/23 68/68/23
f 56/92/23 68/68/23 14/91/23
f 8/93/24 52/71/24 84/65/24
f 8/93/24 84/65/24 56/92/24
f 52/71/1 28/11/1 67/66/1
f 52/71/1 67/66/1 84/65/1
f 9/10/1 26/87/1 69/69/1
f 28/11/1 9/10/1 69/69/1
f 28/11/1 69/69/1 67/66/1
f 60/94/24 85/70/24 52/71/24
f 60/94/24 52/71/24 8/93/24
f 21/95/23 72/75/23 85/70/23
f 21/95/23 85/70/23 60/94/23
f 72/75/1 40/74/1 70/13/1
f 72/75/1 70/13/1 85/70/1
f 49/96/20 86/72/20 72/75/20
f 49/96/20 72/75/20 21/95/20
f 4/97/1 44/98/1 86/72/1
f 4/97/1 86/72/1 49/96/1
f 44/98/25 13/99/25 71/73/25
f 44/98/25 71/73/25 86/72/25
f 71/73/1 87/76/1 73/12/1
f 71/73/1 73/12/1 40/74/1
f 13/99/26 55/100/26 87/76/26
f 13/99/26 87/76/26 71/73/26
f 55/100/26 7/101/26 51/77/26
f 55/100/26 51/77/26 87/76/26
f 74/80/1 29/88/1 9/10/1
f 76/78/1 74/80/1 9/10/1
f 27/9/1 76/78/1 9/10/1
f 51/77/1 88/81/1 76/78/1
f 51/77/1 76/78/1 27/9/1
f 7/101/26 59/102/26 88/81/26
f 7/101/26 88/81/26 51/77/26
f 59/102/26 19/103/26 75/82/26
f 59/102/26 75/82/26 88/81/26
f 75/82/1 89/83/1 77/86/1
f 75/82/1 77/86/1 41/79/1
f 19/103/27 48/104/27 89/83/27
f 19/103/27 89/83/27 75/82/27
f 48/104/1 3/105/1 43/84/1
f 48/104/1 43/84/1 89/83/1
usemtl None_NONE
f 15/106/28 57/106/28 31/106/28
f 57/106/29 5/106/29 31/106/29
f 5/106/30 22/106/30 31/106/30
f 5/106/28 53/106/28 22/106/28
f 53/106/29 10/106/29 22/106/29
f 10/106/30 32/106/30 22/106/30
f 17/106/31 58/106/31 33/106/31
f 58/106/32 6/106/32 33/106/32
f 6/106/33 23/106/33 33/106/33
f 6/106/34 54/106/34 23/106/34
f 54/106/35 12/106/35 23/106/35
f 12/106/33 34/106/33 23/106/33
f 59/106/36 7/106/36 24/106/36
f 19/106/37 59/106/37 24/106/37
f 19/106/38 24/106/38 35/106/38
f 55/106/36 13/106/36 36/106/36
f 7/106/37 55/106/37 36/106/37
f 7/106/38 36/106/38 24/106/38
f 60/106/39 8/106/39 25/106/39
f 21/106/40 60/106/40 25/106/40
f 21/106/41 25/106/41 37/106/41
f 56/106/42 14/106/42 38/106/42
f 8/106/43 56/106/43 38/106/43
f 8/106/41 38/106/41 25/106/41
