# Blender v2.65 (sub 0) OBJ File: 'landscape.blend'
# www.blender.org
mtllib panelsupport2.mtl
o PanelSupport2_Cylinder.008
v 0.159725 0.022483 -0.314458
v 0.155996 0.013919 -0.309478
v 0.159875 0.022504 -0.314309
v 0.156146 0.013941 -0.309329
v 0.160047 0.022501 -0.314185
v 0.156319 0.013937 -0.309206
v 0.160236 0.022473 -0.314091
v 0.156507 0.013910 -0.309112
v 0.160433 0.022423 -0.314031
v 0.156704 0.013860 -0.309051
v 0.160631 0.022351 -0.314006
v 0.156902 0.013788 -0.309026
v 0.160823 0.022261 -0.314018
v 0.157094 0.013697 -0.309038
v 0.161000 0.022155 -0.314066
v 0.157271 0.013592 -0.309086
v 0.161158 0.022039 -0.314148
v 0.157429 0.013476 -0.309169
v 0.161288 0.021916 -0.314262
v 0.157559 0.013353 -0.309282
v 0.161387 0.021791 -0.314403
v 0.157658 0.013228 -0.309423
v 0.161450 0.021670 -0.314565
v 0.157721 0.013106 -0.309585
v 0.161475 0.021556 -0.314742
v 0.157746 0.012992 -0.309762
v 0.161461 0.021454 -0.314927
v 0.157732 0.012890 -0.309948
v 0.161409 0.021368 -0.315114
v 0.157680 0.012804 -0.310135
v 0.161321 0.021301 -0.315295
v 0.157592 0.012738 -0.310315
v 0.161199 0.021256 -0.315463
v 0.157470 0.012693 -0.310484
v 0.161049 0.021235 -0.315612
v 0.157320 0.012671 -0.310632
v 0.160877 0.021238 -0.315736
v 0.157148 0.012675 -0.310756
v 0.160689 0.021265 -0.315830
v 0.156960 0.012702 -0.310850
v 0.160492 0.021316 -0.315890
v 0.156763 0.012752 -0.310911
v 0.160294 0.021388 -0.315915
v 0.156565 0.012824 -0.310936
v 0.160102 0.021478 -0.315903
v 0.156373 0.012915 -0.310924
v 0.159924 0.021583 -0.315855
v 0.156195 0.013020 -0.310876
v 0.159767 0.021700 -0.315773
v 0.156038 0.013136 -0.310793
v 0.159637 0.021823 -0.315659
v 0.155908 0.013259 -0.310679
v 0.159538 0.021947 -0.315519
v 0.155809 0.013384 -0.310539
v 0.159475 0.022069 -0.315357
v 0.155746 0.013506 -0.310377
v 0.159450 0.022183 -0.315179
v 0.155721 0.013620 -0.310200
v 0.159463 0.022285 -0.314994
v 0.155734 0.013722 -0.310014
v 0.159515 0.022371 -0.314807
v 0.155786 0.013808 -0.309827
v 0.159604 0.022438 -0.314626
v 0.155875 0.013874 -0.309646
vt 0.000000 0.000000
vt 1.000000 0.000000
vt 1.000000 1.000000
vt 0.000000 1.000000
vt 0.500000 1.000000
vt 0.597545 0.990393
vt 0.691342 0.961940
vt 0.777785 0.915735
vt 0.402456 0.990393
vt 0.853553 0.853553
vt 0.308659 0.961940
vt 0.915735 0.777785
vt 0.222215 0.915735
vt 0.961940 0.691342
vt 0.146447 0.853554
vt 0.990393 0.597545
vt 0.084266 0.777786
vt 1.000000 0.500000
vt 0.038060 0.691342
vt 0.990393 0.402455
vt 0.009607 0.597546
vt 0.961940 0.308658
vt 0.000000 0.500000
vt 0.915735 0.222215
vt 0.009607 0.402455
vt 0.853553 0.146447
vt 0.038060 0.308659
vt 0.777785 0.084265
vt 0.084265 0.222215
vt 0.691342 0.038060
vt 0.146446 0.146447
vt 0.597545 0.009607
vt 0.222215 0.084265
vt 0.500000 0.000000
vt 0.308658 0.038060
vt 0.402455 0.009607
vn -0.614534 0.579119 0.535695
vn -0.465006 0.587578 0.662210
vn -0.297591 0.573449 0.763280
vn -0.118760 0.537282 0.835000
vn 0.064565 0.480490 0.874620
vn 0.245468 0.405220 0.880649
vn 0.417009 0.314338 0.852816
vn 0.572390 0.211454 0.792248
vn 0.705880 0.100370 0.701184
vn 0.812208 -0.014550 0.583186
vn 0.887293 -0.128862 0.442839
vn 0.928319 -0.238294 0.285375
vn 0.933655 -0.338521 0.117015
vn 0.903119 -0.425743 -0.055842
vn 0.837865 -0.496626 -0.226596
vn 0.740417 -0.548412 -0.388623
vn 0.614534 -0.579119 -0.535695
vn 0.465006 -0.587578 -0.662210
vn 0.297592 -0.573449 -0.763279
vn 0.118760 -0.537282 -0.835000
vn -0.064567 -0.480489 -0.874620
vn -0.245459 -0.405224 -0.880649
vn -0.417021 -0.314331 -0.852813
vn -0.572391 -0.211454 -0.792247
vn -0.705880 -0.100370 -0.701184
vn -0.812208 0.014550 -0.583186
vn -0.887293 0.128862 -0.442839
vn -0.928319 0.238294 -0.285375
vn -0.933654 0.338522 -0.117015
vn -0.903119 0.425743 0.055841
vn -0.352630 -0.808768 0.470687
vn -0.352285 -0.809055 0.470452
vn -0.352294 -0.809048 0.470457
vn -0.352306 -0.809038 0.470465
vn -0.352278 -0.809059 0.470450
vn -0.352316 -0.809027 0.470476
vn -0.352282 -0.809053 0.470458
vn -0.352317 -0.809023 0.470483
vn -0.352287 -0.809046 0.470466
vn -0.352298 -0.809036 0.470474
vn -0.352345 -0.809002 0.470499
vn -0.352278 -0.809058 0.470453
vn -0.352278 -0.809057 0.470453
vn -0.352288 -0.809049 0.470460
vn -0.352323 -0.809023 0.470478
vn -0.352291 -0.809047 0.470461
vn -0.352296 -0.809043 0.470465
vn -0.352293 -0.809045 0.470463
vn -0.352277 -0.809058 0.470453
vn -0.352309 -0.809035 0.470469
vn -0.352346 -0.809004 0.470495
vn -0.352295 -0.809042 0.470468
vn -0.352282 -0.809053 0.470459
vn -0.352320 -0.809024 0.470479
vn -0.352273 -0.809063 0.470447
vn -0.352301 -0.809043 0.470461
vn -0.352311 -0.809035 0.470468
vn -0.352369 -0.808992 0.470498
vn -0.352116 -0.809202 0.470326
vn -0.740415 0.548412 0.388625
vn -0.837865 0.496626 0.226596
vn 0.352116 0.809202 -0.470326
vn 0.352352 0.809006 -0.470487
vn 0.352308 0.809038 -0.470464
vn 0.352315 0.809032 -0.470469
vn 0.352273 0.809063 -0.470447
vn 0.352320 0.809024 -0.470479
vn 0.352285 0.809050 -0.470461
vn 0.352289 0.809047 -0.470463
vn 0.352343 0.809007 -0.470492
vn 0.352312 0.809032 -0.470471
vn 0.352297 0.809043 -0.470463
vn 0.352295 0.809045 -0.470461
vn 0.352279 0.809057 -0.470453
vn 0.352293 0.809045 -0.470463
vn 0.352318 0.809027 -0.470476
vn 0.352323 0.809023 -0.470479
vn 0.352278 0.809057 -0.470453
vn 0.352275 0.809060 -0.470451
vn 0.352342 0.809004 -0.470497
vn 0.352302 0.809034 -0.470476
vn 0.352290 0.809043 -0.470468
vn 0.352310 0.809029 -0.470479
vn 0.352286 0.809049 -0.470462
vn 0.352318 0.809025 -0.470479
vn 0.352274 0.809062 -0.470449
vn 0.352311 0.809034 -0.470468
vn 0.352294 0.809049 -0.470457
vn 0.352258 0.809075 -0.470438
vn 0.352652 0.808747 -0.470707
usemtl None
s off
f 1/1/1 2/2/1 4/3/1 3/4/1
f 3/1/2 4/2/2 6/3/2 5/4/2
f 5/1/3 6/2/3 8/3/3 7/4/3
f 7/1/4 8/2/4 10/3/4 9/4/4
f 9/1/5 10/2/5 12/3/5 11/4/5
f 11/1/6 12/2/6 14/3/6 13/4/6
f 13/1/7 14/2/7 16/3/7 15/4/7
f 15/1/8 16/2/8 18/3/8 17/4/8
f 17/1/9 18/2/9 20/3/9 19/4/9
f 19/1/10 20/2/10 22/3/10 21/4/10
f 21/1/11 22/2/11 24/3/11 23/4/11
f 23/1/12 24/2/12 26/3/12 25/4/12
f 25/1/13 26/2/13 28/3/13 27/4/13
f 27/1/14 28/2/14 30/3/14 29/4/14
f 29/1/15 30/2/15 32/3/15 31/4/15
f 31/1/16 32/2/16 34/3/16 33/4/16
f 33/1/17 34/2/17 36/3/17 35/4/17
f 35/1/18 36/2/18 38/3/18 37/4/18
f 37/1/19 38/2/19 40/3/19 39/4/19
f 39/1/20 40/2/20 42/3/20 41/4/20
f 41/1/21 42/2/21 44/3/21 43/4/21
f 43/1/22 44/2/22 46/3/22 45/4/22
f 45/1/23 46/2/23 48/3/23 47/4/23
f 47/1/24 48/2/24 50/3/24 49/4/24
f 49/1/25 50/2/25 52/3/25 51/4/25
f 51/1/26 52/2/26 54/3/26 53/4/26
f 53/1/27 54/2/27 56/3/27 55/4/27
f 55/1/28 56/2/28 58/3/28 57/4/28
f 57/1/29 58/2/29 60/3/29 59/4/29
f 59/1/30 60/2/30 62/3/30 61/4/30
f 4/5/31 2/6/31 64/7/31
f 4/5/32 64/7/32 62/8/32
f 4/5/33 62/8/33 6/9/33
f 62/8/34 60/10/34 6/9/34
f 60/10/35 8/11/35 6/9/35
f 60/10/36 58/12/36 8/11/36
f 58/12/37 10/13/37 8/11/37
f 58/12/38 56/14/38 10/13/38
f 56/14/39 12/15/39 10/13/39
f 56/14/40 54/16/40 12/15/40
f 54/16/41 14/17/41 12/15/41
f 54/16/42 52/18/42 14/17/42
f 52/18/43 16/19/43 14/17/43
f 52/18/44 50/20/44 16/19/44
f 50/20/45 18/21/45 16/19/45
f 50/20/45 48/22/45 18/21/45
f 48/22/46 20/23/46 18/21/46
f 48/22/47 46/24/47 20/23/47
f 46/24/48 22/25/48 20/23/48
f 46/24/49 44/26/49 22/25/49
f 44/26/50 24/27/50 22/25/50
f 44/26/51 42/28/51 24/27/51
f 42/28/52 26/29/52 24/27/52
f 42/28/53 40/30/53 26/29/53
f 40/30/54 28/31/54 26/29/54
f 40/30/55 38/32/55 28/31/55
f 38/32/56 30/33/56 28/31/56
f 38/32/57 36/34/57 30/33/57
f 36/34/58 32/35/58 30/33/58
f 36/34/59 34/36/59 32/35/59
f 2/3/60 1/4/60 63/1/60 64/2/60
f 61/1/61 62/2/61 64/3/61 63/4/61
f 1/5/62 3/6/62 63/9/62
f 3/6/63 61/11/63 63/9/63
f 3/6/64 5/7/64 61/11/64
f 5/7/65 59/13/65 61/11/65
f 5/7/66 7/8/66 59/13/66
f 7/8/67 57/15/67 59/13/67
f 7/8/68 9/10/68 57/15/68
f 9/10/69 55/17/69 57/15/69
f 9/10/70 11/12/70 55/17/70
f 11/12/71 53/19/71 55/17/71
f 11/12/72 13/14/72 53/19/72
f 13/14/73 51/21/73 53/19/73
f 13/14/74 15/16/74 51/21/74
f 15/16/75 49/23/75 51/21/75
f 15/16/76 17/18/76 49/23/76
f 17/18/77 47/25/77 49/23/77
f 17/18/75 19/20/75 47/25/75
f 19/20/78 45/27/78 47/25/78
f 19/20/79 21/22/79 45/27/79
f 21/22/80 43/29/80 45/27/80
f 21/22/81 23/24/81 43/29/81
f 23/24/82 41/31/82 43/29/82
f 23/24/83 25/26/83 41/31/83
f 25/26/84 39/33/84 41/31/84
f 25/26/85 27/28/85 39/33/85
f 27/28/86 37/35/86 39/33/86
f 27/28/87 29/30/87 37/35/87
f 29/30/88 35/36/88 37/35/88
f 29/30/89 31/32/89 35/36/89
f 31/32/90 33/34/90 35/36/90
