# Blender v2.65 (sub 0) OBJ File: 'landscape.blend'
# www.blender.org
mtllib walkway2.mtl
o Walkway2_Cube.015
v 0.233725 0.005406 -0.056118
v 0.010584 0.005406 0.173540
v 0.235824 0.005406 -0.072909
v 0.229340 0.013606 -0.058900
v 0.006199 0.013606 0.170758
v 0.012683 0.005406 0.156749
v 0.233725 0.005406 -0.056118
v 0.010584 0.005406 0.173540
v 0.235824 0.005406 -0.072909
v 0.012683 0.005406 0.156749
v 0.229340 0.013606 -0.058900
v 0.006199 0.013606 0.170758
v 0.233725 0.005406 -0.056118
v 0.235824 0.005406 -0.072909
v 0.229340 0.013606 -0.058900
vt 0.991675 -0.009198
vt 0.987201 0.982255
vt 0.003854 0.982255
vt -0.002774 0.013007
vt 1.006894 0.004998
vt 0.001343 -0.006104
vt 0.004654 0.970921
vt 0.988000 0.982023
vt 0.997226 0.001904
vt 0.006095 0.981355
vt 0.994992 0.975803
vn -0.608635 0.529012 -0.591363
vn 0.609575 0.526902 0.592277
vn 0.000001 -1.000000 0.000000
usemtl None
s off
f 6/1/1 5/2/1 4/3/1 3/4/1
f 2/5/2 1/6/2 4/7/2 5/8/2
f 10/9/3 9/4/3 7/10/3 8/11/3
